<svg xmlns="http://www.w3.org/2000/svg" version="1.1" xmlns:xlink="http://www.w3.org/1999/xlink" xmlns:svgjs="http://svgjs.com/svgjs" width="1440" height="560" preserveAspectRatio="none" viewBox="0 0 1440 560"><g mask="url(&quot;#SvgjsMask1038&quot;)" fill="none"><rect width="1440" height="560" x="0" y="0" fill="#0e2a47"></rect><path d="M1211.605,614.019C1238.984,615.221,1269.645,614.023,1284.846,591.221C1301.305,566.531,1298.473,532.985,1282.143,508.21C1267.213,485.56,1238.679,478.394,1211.605,480.105C1187.656,481.619,1167.306,495.653,1154.988,516.247C1142.282,537.489,1136.31,563.825,1148.714,585.245C1161.096,606.628,1186.92,612.935,1211.605,614.019" fill="rgba(28, 83, 142, 0.4)" class="triangle-float1"></path><path d="M789.663,703.427C829.275,700.982,860.658,673.018,879.504,638.091C897.305,605.101,899.009,566.343,881.524,533.185C862.726,497.538,829.94,469.079,789.663,467.72C747.218,466.288,708.494,490.333,686.4,526.602C663.321,564.488,655.94,612.202,678.311,650.51C700.523,688.545,745.701,706.141,789.663,703.427" fill="rgba(28, 83, 142, 0.4)" class="triangle-float3"></path><path d="M547.45 349.43 a104.74 104.74 0 1 0 209.48 0 a104.74 104.74 0 1 0 -209.48 0z" fill="rgba(28, 83, 142, 0.4)" class="triangle-float3"></path><path d="M1130.992,539.089C1191.246,537.32,1234.922,485.738,1260.795,431.293C1282.937,384.7,1277.943,331.043,1250.668,287.257C1225.002,246.053,1179.536,222.785,1130.992,222.91C1082.676,223.034,1039.106,247.62,1012.378,287.87C982.037,333.56,963.862,389.727,987.279,439.324C1013.965,495.844,1068.516,540.923,1130.992,539.089" fill="rgba(28, 83, 142, 0.4)" class="triangle-float1"></path><path d="M998.0538684572058 274.28044199407464L1083.5727561348249 142.59290311491446 951.8852172556647 57.07401543729546 866.3663295780457 188.76155431645563z" fill="rgba(28, 83, 142, 0.4)" class="triangle-float2"></path><path d="M977.358,386.673C1028.138,383.904,1069.732,350.614,1094.94,306.446C1119.898,262.716,1127.334,210.087,1103.437,165.768C1078.353,119.249,1030.208,88.664,977.358,88.386C924.046,88.106,876.792,118.958,848.964,164.432C819.728,212.207,807.234,272.106,835.253,320.604C863.261,369.083,921.453,389.721,977.358,386.673" fill="rgba(28, 83, 142, 0.4)" class="triangle-float2"></path><path d="M520.84 20.1 a136.67 136.67 0 1 0 273.34 0 a136.67 136.67 0 1 0 -273.34 0z" fill="rgba(28, 83, 142, 0.4)" class="triangle-float2"></path><path d="M1307.213070568401 432.3548013063683L1276.4591911669302 347.8592120901968 1191.9636019507589 378.61309149166755 1222.7174813522295 463.108680707839z" fill="rgba(28, 83, 142, 0.4)" class="triangle-float3"></path></g><defs><mask id="SvgjsMask1038"><rect width="1440" height="560" fill="#ffffff"></rect></mask><style>
            @keyframes float1 {
                0%{transform: translate(0, 0)}
                50%{transform: translate(-10px, 0)}
                100%{transform: translate(0, 0)}
            }

            .triangle-float1 {
                animation: float1 5s infinite;
            }

            @keyframes float2 {
                0%{transform: translate(0, 0)}
                50%{transform: translate(-5px, -5px)}
                100%{transform: translate(0, 0)}
            }

            .triangle-float2 {
                animation: float2 4s infinite;
            }

            @keyframes float3 {
                0%{transform: translate(0, 0)}
                50%{transform: translate(0, -10px)}
                100%{transform: translate(0, 0)}
            }

            .triangle-float3 {
                animation: float3 6s infinite;
            }
        </style></defs></svg>